<svg xmlns="http://www.w3.org/2000/svg" viewBox="0 0 1024 1024" role="img" aria-label="Sonic Forage mark"><defs><radialGradient id="g" cx="50%" cy="45%" r="60%"><stop offset="0" stop-color="#ff4fd8"/><stop offset=".45" stop-color="#7b3cff"/><stop offset="1" stop-color="#050812"/></radialGradient><filter id="glow"><feGaussianBlur stdDeviation="7" result="b"/><feMerge><feMergeNode in="b"/><feMergeNode in="SourceGraphic"/></feMerge></filter></defs><rect width="1024" height="1024" rx="220" fill="url(#g)"/><circle cx="512" cy="512" r="398" fill="none" stroke="#22ffca" stroke-width="16"/><circle cx="512" cy="512" r="342" fill="none" stroke="#ffda5a" stroke-width="6" opacity=".8"/><path d="M260 495c28-158 137-248 252-248s224 90 252 248H260Z" fill="#ec2db4" stroke="#ffda5a" stroke-width="14"/><path d="M412 486h200v235c0 68-45 108-100 108s-100-40-100-108V486Z" fill="#eefbee" stroke="#22ffca" stroke-width="10"/><circle cx="386" cy="381" r="42" fill="#fff7bd"/><circle cx="522" cy="329" r="30" fill="#fffde8"/><circle cx="638" cy="397" r="48" fill="#fff7bd"/><path d="M226 544c0-184 128-332 286-332s286 148 286 332" fill="none" stroke="#050812" stroke-width="42" stroke-linecap="round"/><path d="M226 544c0-184 128-332 286-332s286 148 286 332" fill="none" stroke="#22ffca" stroke-width="12" stroke-linecap="round" filter="url(#glow)"/><rect x="188" y="505" width="94" height="178" rx="36" fill="#050812" stroke="#22ffca" stroke-width="10"/><rect x="742" y="505" width="94" height="178" rx="36" fill="#050812" stroke="#22ffca" stroke-width="10"/><text x="512" y="850" text-anchor="middle" font-family="DejaVu Sans Condensed,Arial,sans-serif" font-size="170" font-weight="800" fill="#fffdf0" stroke="#050812" stroke-width="8">SF</text></svg>